<svg preserveAspectRatio="none" width="1728" height="435" viewBox="0 0 1728 435" fill="none"
    xmlns="http://www.w3.org/2000/svg">
    <path
        d="M-3.34016e-06 256L26.16 224C52.32 192 104.4 128 157.2 112C209.4 96.0001 261.6 128 314.4 160C366.6 192 418.8 224 471.6 208C523.68 192 576 128 628.8 122.7C680.76 117 733.2 171 786 197.3C837.84 224 890.4 224 942 202.7C994.92 181 1047.6 139 1099.2 128C1152 117 1204.8 139 1256.4 165.3C1309.08 192 1362 224 1413.6 250.7C1466.16 277 1518 299 1570.8 293.3C1623.24 288 1675.2 256 1701.6 240L1728 224L1728 1.52133e-06L1701.84 3.80832e-06C1675.68 6.0953e-06 1623.6 1.06483e-05 1570.8 1.52642e-05C1518.6 1.98277e-05 1466.4 2.43911e-05 1413.6 2.90071e-05C1361.4 3.35705e-05 1309.2 3.8134e-05 1256.4 4.27499e-05C1204.32 4.73029e-05 1152 5.18769e-05 1099.2 5.64928e-05C1047.24 6.10353e-05 994.8 6.56197e-05 942 7.02356e-05C890.16 7.47676e-05 837.6 7.93626e-05 786 8.38736e-05C733.08 8.85e-05 680.4 9.31054e-05 628.8 9.76164e-05C576 0.000102232 523.2 0.000106848 471.6 0.000111359C418.92 0.000115965 366 0.000120591 314.4 0.000125102C261.84 0.000129697 210 0.000134229 157.2 0.000138845C104.76 0.000143429 52.8 0.000147972 26.4 0.00015028L-2.57204e-05 0.000152588L-3.34016e-06 256Z"
        fill="url(#paint0_linear_17_30)" />
    <defs>
        <linearGradient id="paint0_linear_17_30" x1="675" y1="-340.5" x2="1606.42" y2="-196.585"
            gradientUnits="userSpaceOnUse">
            <stop stop-color="#1A131F" />
            <stop offset="1" stop-color="#0F041B" />
        </linearGradient>
    </defs>
</svg>