<svg preserveAspectRatio="none" width="1728" height="433" viewBox="0 0 1728 433" fill="none" xmlns="http://www.w3.org/2000/svg">
    <path
        d="M1728 41.0371L1701.84 75.4075C1675.68 109.778 1623.6 178.519 1570.8 195.704C1518.6 212.889 1466.4 178.519 1413.6 144.148C1361.4 109.778 1309.2 75.4075 1256.4 92.5927C1204.32 109.778 1152 178.519 1099.2 184.211C1047.24 190.333 994.8 132.333 942 104.085C890.16 75.4075 837.6 75.4075 786 98.2853C733.08 121.593 680.4 166.704 628.8 178.519C576 190.333 523.2 166.704 471.6 138.456C418.92 109.778 366 75.4075 314.4 46.7297C261.84 18.4816 210 -5.14803 157.2 0.974187C104.76 6.66678 52.8 41.0371 26.4 58.2223L0 75.4075V435H26.1602C52.3202 435 104.4 435 157.2 435C209.4 435 261.6 435 314.4 435C366.6 435 418.8 435 471.6 435C523.68 435 576 435 628.8 435C680.76 435 733.2 435 786 435C837.84 435 890.4 435 942 435C994.92 435 1047.6 435 1099.2 435C1152 435 1204.8 435 1256.4 435C1309.08 435 1362 435 1413.6 435C1466.16 435 1518 435 1570.8 435C1623.24 435 1675.2 435 1701.6 435H1728V41.0371Z"
        fill="url(#paint0_linear_1_95)" />
    <defs>
        <linearGradient id="paint0_linear_1_95" x1="639.5" y1="-227" x2="1096.6" y2="-19.1393"
            gradientUnits="userSpaceOnUse">
            <stop stop-color="#1A131F" />
            <stop offset="1" stop-color="#0F041B" />
        </linearGradient>
    </defs>
</svg>